<svg width="140" height="140" viewBox="0 0 140 140" fill="none" xmlns="http://www.w3.org/2000/svg">
<ellipse cx="70.5" cy="70" rx="49.5" ry="58" fill="url(#paint0_linear)"/>
<path d="M117.5 70C117.5 101.038 96.1005 125.5 70.5 125.5C44.8995 125.5 23.5 101.038 23.5 70C23.5 38.962 44.8995 14.5 70.5 14.5C96.1005 14.5 117.5 38.962 117.5 70Z" stroke="black" stroke-opacity="0.05" stroke-width="5"/>
<g style="mix-blend-mode:color-dodge">
<path d="M70.491 26L69.8469 27.9137V83.4439L70.491 84.0059L99.9823 68.7695L70.491 26Z" fill="#343434"/>
<path d="M70.4912 26L41 68.7695L70.4912 84.0061V57.0534V26Z" fill="#8C8C8C"/>
<path d="M70.491 88.8865L70.1281 89.2733V109.054L70.491 109.981L99.9998 73.6577L70.491 88.8865Z" fill="#3C3C3B"/>
<path d="M70.4912 109.981V88.8863L41 73.6575L70.4912 109.981Z" fill="#8C8C8C"/>
<path d="M70.491 84.0058L99.9818 68.7696L70.491 57.0535V84.0058Z" fill="#141414"/>
<path d="M41.0002 68.7697L70.491 84.0059V57.0536L41.0002 68.7697Z" fill="#393939"/>
</g>
<defs>
<linearGradient id="paint0_linear" x1="70.5" y1="12" x2="70.5" y2="128" gradientUnits="userSpaceOnUse">
<stop stop-color="#4D3FA2"/>
<stop offset="0.9998" stop-color="#5E6BB2" stop-opacity="0.96"/>
<stop offset="0.9999" stop-color="#ECABAD" stop-opacity="0.0126432"/>
<stop offset="1" stop-color="#EEADAD" stop-opacity="0"/>
</linearGradient>
</defs>
</svg>
