<svg xmlns="http://www.w3.org/2000/svg" width="1277.333" height="1277.333" version="1" viewBox="0 0 958 958"><path d="M652.8.6c-.2.1-2.3.5-4.8.9-2.5.3-5.2.8-6 1-1.5.4-4.3.9-11.5 2.1-2.2.3-4.4.8-4.8 1.1-.4.2-2.7.7-5 .9-6.5.7-10.2 1.2-10.2 1.4 0 .3-3.8.9-7.5 1.4-1.9.2-5.3.8-7.5 1.4-2.2.6-6.2 1.3-8.9 1.7-2.7.3-5.2.8-5.5.9-.3.2-2.6.7-5.1 1-2.5.3-5.6.8-7 1.1-1.4.3-4 .8-5.9 1.1-1.8.3-4.3.8-5.5 1-1.1.2-5.2.9-9.1 1.5-7.9 1.3-10 1.7-10 1.9 0 .2-3.6 1-7.5 1.5-1.9.3-4.6.8-6 1.1-1.4.3-3.8.7-5.5.9-1.6.3-5.2.9-8 1.5-2.7.5-6.3 1.2-8 1.4-1.6.3-4.8.8-7 1.2-5.1.8-7 1.2-7 1.4 0 .1-1.2.4-2.8.6-1.5.1-4.2.6-6 .9-4.3.8-6 1.1-13.7 2.4-3.6.6-7.6 1.3-9 1.6-4.7.9-14.5 2.7-16.5 3-1.1.1-7.4 1.3-14 2.5s-13.1 2.3-14.5 2.5c-1.4.1-3.5.5-4.6.9-1.9.6-5 1.1-13.4 2.1-1.4.2-2.5.4-2.5.5 0 .2-1.9.6-6.5 1.4-1.9.3-4.4.7-5.5 1-1.1.2-4 .7-6.5 1.1-2.5.5-5.6 1-7 1.2-1.4.3-3.4.6-4.5.7-1.1.2-3.3.6-5 .9-1.6.4-4.3.9-6 1.2-1.6.2-5.4.9-8.4 1.5-2.9.5-5.7.7-6.2.4-.5-.3-.9-.1-.9.4s-.6.9-1.2.9c-1.5.1-8.2 1.1-11.8 1.8-1.4.3-4.1.8-6 1-1.9.3-4.6.9-6 1.2-1.4.4-3.6.8-5 .9-1.4.1-5 .7-8 1.3-3 .6-6.8 1.3-8.5 1.6-1.6.2-4.1.7-5.5 1-1.4.3-4.1.8-6 1.1-1.9.2-4.6.7-6 1-1.4.2-3.6.6-5 .9-5.5 1.1-13.7 2.5-17.5 3.1-2.2.3-7.1 1.2-11 1.9-11.1 2.2-23.7 4.4-27.5 4.9-1.9.3-3.5.5-3.5.6 0 .1-1.3.4-3 .6-2.5.4-24.1 4.4-31.2 5.8-1.1.3-4.3.8-7 1.2-5 .8-5.8 1-7 1.4-.5.1-1.1.2-1.5.2-2-.3-14.8 2.7-17.3 4.1-1.6.9-2.5 1.6-2 1.7.6 0 .4.4-.4.9-1.3.8-1.4 1.6-2.6 38.1-.4 12.8-1.3 42-2 68.5-.3 8.2-.7 22.2-1 31-.3 8.8-.7 24.1-1 34-.6 18.6-.8 27.5-2.1 67.5-.4 12.9-.7 28.1-.8 33.7-.1 5.7-.4 10.3-.8 10.3s-.3 1.2.2 2.6c.6 1.4.7 3 .4 3.6-.4.6-.8 6-1 12.2-.4 13.9-1.4 49.6-1.9 68.1-.3 7.7-.7 21.9-1 31.5-.3 9.6-.7 24-1 32-.2 8-.6 22.6-1 32.5-1.4 44.3-1.6 53.8-1.8 66.2-.1 7.3-.4 13.3-.7 13.3-.3 0-.6 6.6-.6 14.8-.1 13.2-1.2 54.7-1.4 54.7-.1 0-.3 6.3-.5 14-.5 15.2-1.4 41.2-1.8 48.7-.1 2.7.1 4.8.6 4.8.4 0 .5.6 0 1.2-.4.7-.8 5.1-.9 9.8-.4 19.8-1.5 48.4-1.9 48.8-.2.3 0 1.2.5 2.2.5 1 .6 2.1.2 2.4-.4.4-.7 4.7-.8 9.4-.1 4.8-.5 20.7-.9 35.3-.9 35.6-1.8 34.2 20.5 35.4 5.2.3 12.4.8 16 1 3.6.3 10.2.8 14.7 1 4.6.3 11.3.7 15 1 3.8.3 10.9.8 16 1 5 .3 11.7.8 15 1 3.2.3 9.2.7 13.3 1 4.1.3 10.7.7 14.5 1 3.9.2 11.1.7 16 1.1 5 .3 11.7.7 15 .9 3.3.2 9.6.7 14 1 4.4.3 10.9.7 14.5.9 3.6.3 10.8.8 16 1.2 5.2.4 12.8.7 16.7.8 4 .1 7.3.3 7.3.6s2.4.6 5.3.7c2.8 0 9.3.4 14.2.7 5 .3 13.1.8 18 1.1 5 .3 11.5.8 14.5 1.1 3 .2 9.3.7 14 .9 8.9.5 18.7 1.2 30.5 2.1 3.9.3 10.4.7 14.5 1 7.6.4 14.8.9 29.5 1.9 4.4.3 11.8.7 16.5 1 4.7.3 11.2.7 14.5 1 3.3.3 9.8.7 14.5 1 8 .4 14.3.8 30 2 3.6.3 10.3.7 15 1 4.7.3 11.2.8 14.5 1 3.3.3 10.3.7 15.5 1 5.2.3 11.8.8 14.5 1 2.8.2 9.5.7 15 1 5.5.3 12.5.8 15.5 1 3 .2 10.9.6 17.5.9 11.1.4 12.5.3 18.5-2.1 3.6-1.3 8.3-3.2 10.5-4 2.2-.8 5.1-2 6.5-2.6 1.4-.6 2.7-1.1 3-1.1.5-.1 8.6-3 12-4.3.8-.4 1.8-.7 2.3-.8.4-.2.9-.4 1.2-.5.3-.1.8-.3 1.3-.5.4-.1 2.1-.8 3.7-1.5 1.7-.7 3.2-1.4 3.5-1.5 3.1-.7 8.8-3 9.9-3.9.8-.6 1.5-1 1.5-.8.1.2 1.4-.1 2.9-.7 1.6-.6 3.3-1.1 3.8-1.1s1.7-.5 2.7-1c2.7-1.6 20.2-8 21.8-8 .8 0 1.4-.4 1.4-.9s1.2-1.1 2.8-1.4c1.5-.3 4.1-1.1 5.7-1.8 1.7-.7 3.9-1.4 5-1.6 1-.2 2.3-.9 2.7-1.6.4-.6.8-.8.8-.3s.7.2 1.7-.5c.9-.8 1.7-1.3 1.7-1.1.1.2 1.3-.1 2.7-.7 1.5-.5 3.5-1.1 4.5-1.3 1.1-.2 2.1-.6 2.4-.9.3-.4 9.7-4.1 21-8.3 25.9-9.7 26.9-10.2 28.1-13.4 1.1-2.9.7-34.6-1.6-122.2-.3-11.3-.5-23.2-.5-26.5.1-3.3.1-6.5 0-7-.1-2.6-.8-27.5-1.4-52-.4-14.9-.9-35.6-1.2-46-.2-10.5-.6-29.1-.9-41.5-.2-12.4-.7-23.5-.9-24.8-.3-1.2 0-2.2.5-2.2.6 0 .7-.5.3-1.1-.4-.6-.8-7.1-1-14.3-.9-43.5-1.6-71.3-2-87.1-.2-9.9-.6-28.4-.9-41-.3-12.7-.7-32.2-1-43.5-.9-38.2-2.1-90-2.9-128-.2-9.1-.5-16.5-.6-16.5-.1 0-.2-1.9-.3-4.3-.1-2.3.2-4.2.6-4.2.5 0 .5-.5.1-1.1-.3-.6-.8-12-1-25.3-.2-13.2-.6-25.5-.9-27.2-.4-2.4-4-6.7-14-17-7.4-7.6-13.5-13.9-13.5-14 0-.2-8.8-9.2-19.5-20.1-10.8-10.9-27.8-28.3-37.8-38.6-10-10.4-26.5-27.3-36.7-37.6-10.2-10.3-23.9-24.5-30.6-31.4-6.7-7-13.3-13.1-14.8-13.7-2.3-.8-10.1-1.2-10.8-.4z"/></svg>