<svg xmlns="http://www.w3.org/2000/svg" width="117" height="117" fill="none" viewBox="0 0 117 23"><path fill="#291A41" stroke="#291A41" stroke-width=".35" d="M108.375 6.08c-.157 0-.236.08-.393.16a.614.614 0 0 0-.157.398v11.724c0 .16.079.24.157.399.079.08.236.16.393.16.157 0 .236-.08.393-.16a.614.614 0 0 0 .157-.399v-5.344h2.987l2.75 5.663c.08.16.237.319.472.319.079 0 .158 0 .236-.08.157-.08.236-.16.236-.319.079-.16 0-.239 0-.398l-2.515-5.185c.865-.16 1.65-.558 2.2-1.196.63-.638.865-1.356.865-2.233 0-.957-.393-1.755-1.1-2.472-.707-.638-1.572-1.037-2.594-1.037h-4.087zm5.895 5.104c-.472.479-1.1.718-1.808.718h-3.537V7.117h3.459c.707 0 1.336.239 1.886.717.55.479.786 1.037.786 1.675 0 .638-.314 1.197-.786 1.675zm-11.24 7.736c.158 0 .236-.08.393-.16a.614.614 0 0 0 .158-.398c0-.16-.079-.24-.158-.399a.596.596 0 0 0-.393-.16h-6.523v-4.785h4.873c.157 0 .236-.08.393-.16a.614.614 0 0 0 .157-.398c0-.16-.078-.24-.157-.399a.596.596 0 0 0-.393-.16h-4.873V7.118h6.523c.158 0 .236-.08.393-.16a.614.614 0 0 0 .158-.399c0-.16-.079-.239-.158-.398a.596.596 0 0 0-.393-.16h-7.073c-.157 0-.236.08-.393.16a.614.614 0 0 0-.157.398v11.804c0 .16.078.24.157.399.078.08.236.16.393.16h7.073zm-19.57-.239a.614.614 0 0 0 .157-.399v-3.43l1.572-1.674 5.266 5.583c.079.08.236.16.393.16.157 0 .236-.08.393-.16a.614.614 0 0 0 .157-.399c0-.16-.079-.24-.157-.399l-5.266-5.662 5.109-5.344a.614.614 0 0 0 .157-.399c0-.16-.079-.239-.157-.398A.595.595 0 0 0 90.69 6c-.157 0-.236.08-.393.16l-6.681 7.177V6.558c0-.16-.079-.239-.157-.398a.596.596 0 0 0-.393-.16c-.157 0-.236.08-.393.16 0 .159-.079.239-.079.398v11.724c0 .16.079.24.157.399.079.08.236.16.393.16.079 0 .236-.08.315-.16zm-14.934.24c.236 0 .393-.08.472-.32l1.1-2.711h6.445l1.1 2.711c.08.24.236.32.472.32.079 0 .157 0 .236-.08a.618.618 0 0 0 .314-.32c.079-.159.079-.239 0-.398l-1.257-3.031-3.616-8.773s0-.08-.078-.08v-.08h-.079c-.079-.08-.157-.08-.157-.08h-.157-.157c-.08 0-.158 0-.158.08h-.078v.08s0 .08-.079.08l-3.615 8.773-1.258 3.03c-.079.16-.079.24 0 .4.079.159.157.239.314.318.079.08.158.08.236.08zm1.965-4.068l2.83-6.86 2.83 6.86h-5.66zm-18.313-6.3l4.794 7.975v.08H57.916v-.08l4.794-7.976v9.89c0 .16.079.239.157.399.079.08.236.159.393.159.157 0 .236-.08.393-.16a.614.614 0 0 0 .157-.398V6.638c0-.24-.157-.478-.393-.478-.235-.08-.471 0-.628.239l-5.345 8.773-5.266-8.853c-.157-.24-.393-.319-.629-.24-.236.08-.393.24-.393.559v11.804c0 .16.079.239.157.398.079 0 .236.08.393.08.158 0 .236-.08.393-.16a.614.614 0 0 0 .158-.398v-9.81h-.079z" class="text"/><path stroke="#291A41" stroke-width="2.2" d="M15.872 20.69v-9.44a2 2 0 0 0-.893-1.666L3.602 2.031a1 1 0 0 0-1.553.833V20.69" class="left-arch"/><path stroke="#291A41" stroke-width="2.2" d="M21.212 20.69v-9.44a2 2 0 0 1 .894-1.666l11.377-7.553a1 1 0 0 1 1.553.833V20.69" class="right-arch"/><rect width="2.2" height="3" fill="#291A41" class="left-arch-ends" rx="1.1" transform="translate(.95 19.2)"/><rect width="2.2" height="3" fill="#291A41" class="right-arch-ends" rx="1.1" transform="translate(20.11 19.2)"/><rect width="2.2" height="3" fill="#291A41" class="right-arch-ends" rx="1.1" transform="translate(33.93 19.2)"/><rect width="2.2" height="3" fill="#291A41" class="left-arch-ends" rx="1.1" transform="translate(14.77 19.2)"/></svg>