<svg xmlns="http://www.w3.org/2000/svg" viewBox="2 -12 264 264">
    <path d="M131.9,2.82A120.18,120.18,0,1,0,252.08,123,120.18,120.18,0,0,0,131.9,2.82Zm43.46,159.47-30.92,31.33a17.23,17.23,0,0,1-24.57,0l-31-31.29a17.74,17.74,0,0,1,0-24.87h0a10.72,10.72,0,0,1,15.29,0l15.66,15.83a17.23,17.23,0,0,0,24.57,0l15.64-15.85a10.72,10.72,0,0,1,15.29,0h0A17.74,17.74,0,0,1,175.36,162.28Zm32.52-50.09h0a10.33,10.33,0,0,1-14.73.15L178.2,97.23a16.61,16.61,0,0,0-23.69.25L139.29,112.9a10.49,10.49,0,0,1-8.63,3.09,10.1,10.1,0,0,1-6.37-3L109.35,97.91a16.61,16.61,0,0,0-23.69.25L70.44,113.58a10.33,10.33,0,0,1-14.73.15h0a17.1,17.1,0,0,1,.22-24L86,59.27A16.61,16.61,0,0,1,109.7,59L132.1,81.67l22.78-23.08a16.61,16.61,0,0,1,23.69-.25L208.1,88.21A17.1,17.1,0,0,1,207.88,112.19Z"
          style="fill:#007896"/>
</svg>