<svg xmlns="http://www.w3.org/2000/svg" width="127" height="127" viewBox="0 0 77 35"><path d="M37.551 16.271h1.852c.458-.007.802-.14 1.03-.399.226-.24.339-.536.339-.886-.008-.422-.142-.727-.405-.915-.207-.166-.506-.25-.898-.25h-1.918v2.45zm-1.224-3.541h3.153c.673 0 1.222.177 1.647.532.513.402.781.977.803 1.723-.015 1.098-.536 1.844-1.563 2.24l1.874 3.586h-1.458l-1.669-3.453h-1.563v3.453h-1.224V12.73zM45.525 12.73h5.16v1.158H46.75v2.306h3.359v1.086H46.75v2.372h3.935v1.159h-5.16V12.73zM54.114 12.73h1.225v6.922h3.935v1.159h-5.16V12.73zM66.494 17.918l-1.17-3.531h-.022l-1.17 3.53h2.362zm.35 1.086h-3.066l-.62 1.807H61.86l2.938-8.081h1.025l2.938 8.08H67.47l-.627-1.806zM72.467 17.485l-2.433-4.755h1.297l1.712 3.586 1.713-3.586h1.297l-2.433 4.755v3.326h-1.153v-3.326zM14.053 9.767c3.186 0 5.777 2.557 5.777 5.698 0 2.666-1.867 4.91-4.378 5.528L4 9.767h10.052zm8.806 18.487c4.146-2.786 6.875-7.479 6.875-12.789C29.734 6.938 22.699 0 14.052 0H.023v1.628h14.03c7.737 0 14.031 6.207 14.031 13.837 0 4.865-2.56 9.148-6.42 11.616l-1.806-1.77c3.435-1.977 5.75-5.649 5.75-9.846 0-6.283-5.183-11.395-11.554-11.395H.02v1.628h14.031c5.462 0 9.904 4.381 9.904 9.767 0 3.754-2.16 7.018-5.316 8.653l-1.872-1.835c2.759-1.07 4.712-3.718 4.712-6.818 0-4.046-3.325-7.325-7.428-7.325H0l13.285 13.023H.021v1.628h14.031c.286 0 .567-.018.844-.049l2.093 2.052c-.928.285-1.914.439-2.937.439H.023v1.627h14.03c1.495 0 2.922-.284 4.234-.795l1.886 1.85a14.105 14.105 0 0 1-6.12 1.387H.023v1.628h14.03c2.655 0 5.157-.656 7.351-1.81l4.337 4.252H.023V35h29.71l.002-.002v-.004l-6.876-6.74z"/><path d="M14.053 9.767c3.186 0 5.777 2.557 5.777 5.698 0 2.666-1.867 4.91-4.378 5.528L4 9.767h10.052zm8.806 18.487c4.146-2.786 6.875-7.479 6.875-12.789C29.734 6.938 22.699 0 14.052 0H.023v1.628h14.03c7.737 0 14.031 6.207 14.031 13.837 0 4.865-2.56 9.148-6.42 11.616l-1.806-1.77c3.435-1.977 5.75-5.649 5.75-9.846 0-6.283-5.183-11.395-11.554-11.395H.02v1.628h14.031c5.462 0 9.904 4.381 9.904 9.767 0 3.754-2.16 7.018-5.316 8.653l-1.872-1.835c2.759-1.07 4.712-3.718 4.712-6.818 0-4.046-3.325-7.325-7.428-7.325H0l13.285 13.023H.021v1.628h14.031c.286 0 .567-.018.844-.049l2.093 2.052c-.928.285-1.914.439-2.937.439H.023v1.627h14.03c1.495 0 2.922-.284 4.234-.795l1.886 1.85a14.105 14.105 0 0 1-6.12 1.387H.023v1.628h14.03c2.655 0 5.157-.656 7.351-1.81l4.337 4.252H.023V35h29.71l.002-.002v-.004l-6.876-6.74z"/></svg>